<svg xmlns="http://www.w3.org/2000/svg" viewBox="0 0 1600 900" role="img" aria-labelledby="title desc">
<title id="title">Dashboard Mundial 2026</title>
<desc id="desc">Vista representativa del dashboard histórico, predicción inicial y predicción viva del Mundial 2026.</desc>
<defs>
  <linearGradient id="bg" x1="0" y1="0" x2="1" y2="1"><stop stop-color="#071321"/><stop offset="1" stop-color="#0b2238"/></linearGradient>
  <linearGradient id="gold" x1="0" y1="0" x2="1" y2="1"><stop stop-color="#fbd66b"/><stop offset=".45" stop-color="#d89a00"/><stop offset="1" stop-color="#805400"/></linearGradient>
  <filter id="shadow"><feDropShadow dx="0" dy="10" stdDeviation="16" flood-color="#000" flood-opacity=".35"/></filter>
</defs>
<rect width="1600" height="900" fill="url(#bg)"/>
<rect x="38" y="32" width="1524" height="132" rx="24" fill="#141d2d" stroke="#26334a"/>
<rect x="64" y="51" width="92" height="92" rx="22" fill="url(#gold)"/>
<path d="M99 76h22v8h9c0 18-10 26-20 29v8h12v8H89v-8h12v-8c-10-3-20-11-20-29h9v-8h9zm-10 17c2 7 6 11 12 14V93zm32 0v14c6-3 10-7 12-14z" fill="#071321"/>
<text x="188" y="92" font-family="Inter,Arial,sans-serif" font-size="50" font-weight="700" fill="#f1f5f9">Mundial 2026</text>
<text x="188" y="130" font-family="Inter,Arial,sans-serif" font-size="23" font-weight="600" fill="#cbd5e1">Dashboard histórico de Copas del Mundo FIFA 1998–2022</text>
<text x="188" y="156" font-family="Inter,Arial,sans-serif" font-size="17" fill="#94a3b8">Histórico · Predicción inicial · Predicción viva</text>
<g filter="url(#shadow)">
<rect x="38" y="192" width="1030" height="670" rx="26" fill="#0b1d31" stroke="#155e75" stroke-width="2"/>
<rect x="64" y="220" width="978" height="128" rx="20" fill="#172033" stroke="#334155"/>
<rect x="86" y="242" width="70" height="70" rx="17" fill="#203a3b" stroke="#d89a00"/>
<path d="M110 259h22v8h8c0 16-9 23-18 26v7h10v7h-30v-7h10v-7c-9-3-18-10-18-26h8v-8h8zm-9 16c2 6 5 10 11 12v-12zm31 0v12c6-2 9-6 11-12z" fill="url(#gold)"/>
<text x="178" y="270" font-family="Inter,Arial,sans-serif" font-size="36" font-weight="700" fill="#f1f5f9">Predicción inicial 2026</text>
<text x="178" y="307" font-family="Inter,Arial,sans-serif" font-size="18" font-weight="600" fill="#cbd5e1">Simulación base · Modelo v1.1 · No usa resultados reales</text>
<rect x="815" y="239" width="202" height="78" rx="18" fill="#101827" stroke="#5eead4"/>
<text x="838" y="265" font-family="Inter,Arial,sans-serif" font-size="13" font-weight="700" fill="#94a3b8">ÚLTIMA EJECUCIÓN</text>
<text x="838" y="295" font-family="Inter,Arial,sans-serif" font-size="17" font-weight="700" fill="#f1f5f9">2026-06-29 18:10</text>
<text x="303" y="405" font-family="Inter,Arial,sans-serif" font-size="20" font-weight="700" fill="#fbbf24">RUTA COMPLETA PREDICHA DEL TORNEO</text>
<text x="254" y="451" font-family="Inter,Arial,sans-serif" font-size="38" font-weight="700" fill="#f1f5f9">Fase de grupos + eliminatorias completas</text>
<g font-family="Inter,Arial,sans-serif" font-size="16" font-weight="600">
<rect x="360" y="482" width="144" height="45" rx="23" fill="#1e293b" stroke="#475569"/><circle cx="383" cy="505" r="7" fill="#8dd8d8"/><text x="402" y="511" fill="#cbd5e1">Clasifica</text>
<rect x="518" y="482" width="176" height="45" rx="23" fill="#1e293b" stroke="#475569"/><circle cx="541" cy="505" r="7" fill="#fbbf24"/><text x="560" y="511" fill="#cbd5e1">Mejor tercero</text>
<rect x="708" y="482" width="144" height="45" rx="23" fill="#1e293b" stroke="#475569"/><circle cx="731" cy="505" r="7" fill="#f1f5f9"/><text x="750" y="511" fill="#cbd5e1">Ganador</text>
</g>
<g font-family="Inter,Arial,sans-serif">
<rect x="64" y="560" width="470" height="74" rx="18" fill="#071827" stroke="#155e75"/><text x="88" y="590" font-size="15" font-weight="700" fill="#94a3b8">FASE DE GRUPOS</text><text x="424" y="607" font-size="18" font-weight="700" fill="#f1f5f9">Grupos A–F</text>
<rect x="548" y="560" width="494" height="74" rx="18" fill="#071827" stroke="#155e75"/><text x="572" y="590" font-size="15" font-weight="700" fill="#94a3b8">FASE DE GRUPOS</text><text x="929" y="607" font-size="18" font-weight="700" fill="#f1f5f9">Grupos G–L</text>
</g>
<g fill="#0a2438" stroke="#155e75"><rect x="64" y="660" width="292" height="155" rx="20"/><rect x="374" y="660" width="292" height="155" rx="20"/><rect x="684" y="660" width="292" height="155" rx="20"/></g>
<g fill="#185367"><rect x="88" y="686" width="92" height="14" rx="7"/><rect x="398" y="686" width="92" height="14" rx="7"/><rect x="708" y="686" width="92" height="14" rx="7"/></g>
<g fill="#28445e"><rect x="88" y="719" width="224" height="15" rx="7"/><rect x="398" y="719" width="224" height="15" rx="7"/><rect x="708" y="719" width="224" height="15" rx="7"/><rect x="88" y="752" width="184" height="15" rx="7"/><rect x="398" y="752" width="184" height="15" rx="7"/><rect x="708" y="752" width="184" height="15" rx="7"/></g>
</g>
<g filter="url(#shadow)">
<rect x="1100" y="192" width="462" height="522" rx="26" fill="#0a2438" stroke="#155e75" stroke-width="2"/>
<path d="M1303 263c-67 15-98 82-63 143 17 30 49 44 63 64 14-20 46-34 63-64 35-61 4-128-63-143zm-48 257h96l-14 41h-68zm13 58h70l22 53h-114z" fill="url(#gold)"/>
<ellipse cx="1303" cy="314" rx="48" ry="58" fill="#f6d66e" opacity=".35"/>
<text x="1303" y="674" text-anchor="middle" font-family="Inter,Arial,sans-serif" font-size="20" font-weight="700" fill="#fbbf24">COPA DEL MUNDO</text>
</g>
<rect x="1100" y="738" width="462" height="124" rx="22" fill="#172033" stroke="#334155"/>
<rect x="1122" y="760" width="64" height="64" rx="16" fill="#203a3b" stroke="#d89a00"/>
<path d="M1144 774h20v7h7c0 14-8 21-16 23v6h9v6h-28v-6h9v-6c-8-2-16-9-16-23h7v-7h8z" fill="url(#gold)"/>
<text x="1206" y="786" font-family="Inter,Arial,sans-serif" font-size="28" font-weight="700" fill="#f1f5f9">Predicción viva 2026</text>
<text x="1206" y="817" font-family="Inter,Arial,sans-serif" font-size="15" fill="#cbd5e1">Calendario oficial + resultados reales</text>
<text x="1206" y="840" font-family="Inter,Arial,sans-serif" font-size="15" fill="#94a3b8">Actualización automática del modelo</text>
</svg>